<svg color="#FDFAD9" width="30" height="30" viewBox="0 0 30 30" fill="none" xmlns="http://www.w3.org/2000/svg">
<path fill-rule="evenodd" clip-rule="evenodd" d="M27.8273 0H2.26125C1.03828 0 0 0.967031 0 2.15865V27.8402C0 29.033 0.681387 30 1.90383 30H27.4699C28.6944 30 30 29.033 30 27.8402V2.15865C30 0.967031 29.0513 0 27.8273 0ZM11.4283 11.4283H15.4671V13.4871H15.5113C16.1268 12.377 17.9453 11.2501 20.1942 11.2501C24.5099 11.2501 25.7145 13.5416 25.7145 17.7855V25.7145H21.4285V18.5674C21.4285 16.6673 20.6699 15 18.8957 15C16.7413 15 15.7143 16.4583 15.7143 18.853V25.7145H11.4283V11.4283ZM4.28549 25.7145H8.5715V11.4283H4.28549V25.7145ZM9.10711 6.4285C9.10711 7.90846 7.90846 9.10711 6.4285 9.10711C4.94853 9.10711 3.74988 7.90846 3.74988 6.4285C3.74988 4.94853 4.94853 3.74988 6.4285 3.74988C7.90846 3.74988 9.10711 4.94853 9.10711 6.4285Z" fill="#FDFAD9"/>
</svg>
