<svg color="#FDFAD9" width="30" height="30" viewBox="0 0 30 30" fill="#FDFAD9" xmlns="http://www.w3.org/2000/svg">
<g clip-path="url(#clip0_5_54)">
<path fill-rule="evenodd" clip-rule="evenodd" d="M15 0C23.2842 0 30 6.71578 30 15C30 23.2842 23.2842 30 15 30C6.71578 30 0 23.2842 0 15C0 6.71578 6.71578 0 15 0ZM18.6703 9.23139H20.6274L16.3516 14.1185L21.3819 20.7686H17.4431L14.3584 16.7352L10.8285 20.7686H8.87016L13.4435 15.5413L8.61814 9.23139H12.6567L15.4451 12.9179L18.6703 9.23139ZM17.9834 19.5971H19.0679L12.0674 10.3414H10.9037L17.9834 19.5971Z" fill="#FDFAD9"/>
</g>
<defs>
<clipPath id="clip0_5_54">
<rect width="30" height="30" fill="white"/>
</clipPath>
</defs>
</svg>
